<svg width="31" height="51" viewBox="0 0 31 51" fill="none" xmlns="http://www.w3.org/2000/svg">
<path d="M17.4549 1.63777C15.9114 3.94379 14.2907 6.41544 13.8405 9.2056C13.3903 11.9958 13.892 14.7095 15.7827 16.7607C16.979 18.0602 18.7283 18.608 20.3618 17.7162C21.7638 16.9518 22.4455 15.3465 23.0243 13.9578C24.1562 11.2313 24.4521 8.23732 24.0276 5.31976C23.7961 3.76542 23.2559 2.17287 22.0854 1.06445C21.3779 0.389207 20.4261 -0.209594 19.3971 0.0706954C18.7025 0.249062 18.2138 0.720458 17.7507 1.23008C17.069 2.00724 16.979 3.16662 17.7507 3.93105C18.4453 4.61903 19.7958 4.70822 20.4776 3.93105C20.5033 3.89283 20.7863 3.63802 20.7991 3.56158C20.8377 3.39595 20.5933 3.68898 20.4132 3.75268H19.3843C19.3071 3.71446 19.2428 3.67624 19.1784 3.62528C19.2942 3.71446 19.3971 3.81639 19.5 3.91831C19.4486 3.80365 19.4743 3.84187 19.6029 4.04571C19.6801 4.17312 19.7573 4.30052 19.8216 4.42793C19.9888 4.75918 20.1431 5.35798 20.2332 5.8676C20.4132 6.91232 20.4261 8.14814 20.2975 9.2693C20.1689 10.3905 19.8602 11.5371 19.4486 12.5946C19.2685 13.0405 19.0498 13.4864 18.8054 13.9196C18.8054 13.9323 18.381 14.5056 18.3681 14.4801C18.3167 14.289 19.0884 14.3782 18.9598 14.4419C18.7797 14.5184 18.2909 13.7412 18.2138 13.6265C17.9308 13.1679 17.9051 13.1169 17.7507 12.5946C17.5706 11.9575 17.5578 11.8556 17.532 11.2695C17.532 11.0657 17.532 10.8491 17.532 10.6453C17.532 10.5688 17.6092 9.8681 17.5706 10.1102C17.9565 7.664 19.4228 5.57457 20.7734 3.54884C21.3522 2.68249 20.9406 1.43392 20.0788 0.937046C19.1399 0.389206 18.0208 0.75868 17.442 1.62503L17.4549 1.63777Z" fill="#C95600"/>
<path d="M19.3585 18.1366C20.6577 17.9583 21.9696 17.2703 23.1015 16.6333C24.3878 15.9071 25.584 14.9261 26.5616 13.8304C27.5391 12.7347 28.4523 11.4097 29.0697 10.021C29.7515 8.46665 31.012 5.72745 29.3399 4.45341C28.298 3.65076 26.6001 4.23682 25.4039 4.45341C24.3492 4.63178 23.3073 4.83562 22.2655 5.05221C21.2751 5.25606 20.6062 6.4664 20.9149 7.40919C21.2493 8.44117 22.2269 8.96353 23.2945 8.74694C25.0438 8.37747 26.8059 8.0717 28.5681 7.79141H27.5391L27.6549 7.81689L26.8059 7.32001L26.8831 7.39645L26.3815 6.55558L26.4072 6.67025V5.65101C26.3043 6.24981 26.15 6.84861 25.957 7.43467C25.867 7.71496 25.7641 7.98251 25.6483 8.2628C25.8027 7.86785 25.6226 8.30102 25.584 8.39021C25.5197 8.53035 25.4425 8.68324 25.3782 8.82338C25.0952 9.37122 24.7737 9.89358 24.4264 10.4032C24.3492 10.5179 24.272 10.6198 24.1948 10.7217C24.4521 10.3905 24.1563 10.7599 24.0919 10.8364C23.8861 11.0784 23.6675 11.3205 23.4488 11.5498C23.243 11.7664 23.0244 11.9703 22.8057 12.1614C22.6899 12.2633 22.5613 12.378 22.4455 12.4799C22.3169 12.5946 22.1754 12.6965 22.3941 12.5309C21.9439 12.8748 21.468 13.1806 20.9792 13.4482C20.7477 13.5756 20.5162 13.6902 20.2718 13.8049C20.156 13.8559 20.0403 13.9196 19.9245 13.9705C19.7573 14.047 19.5129 14.1361 19.8216 14.0215C19.3328 14.2126 18.8312 14.391 18.3167 14.4674C17.3134 14.6075 16.6831 15.9198 16.9661 16.8244C17.3263 17.9201 18.2652 18.3023 19.3457 18.1621L19.3585 18.1366Z" fill="#C95600"/>
<path d="M15.0753 19.6018C10.1232 29.0807 5.18401 38.5723 0.231942 48.0512C-0.899959 50.2298 2.41857 52.1664 3.56333 49.975C6.2516 44.8152 8.88841 39.4132 13.1073 35.2598C15.0624 33.336 17.2362 31.5906 19.3328 29.8069C22.0468 27.4881 24.8508 25.2076 27.9378 23.3857L25.5968 20.379C22.3426 23.7042 19.4743 27.3353 16.3229 30.7497C13.1716 34.1641 9.59584 36.623 5.62132 38.8526C3.46042 40.063 5.40267 43.3627 7.56357 42.1524C11.7053 39.8336 15.6027 37.1454 18.844 33.6673C22.0854 30.1891 25.0051 26.4689 28.3237 23.08C29.8286 21.5384 27.8992 18.952 25.9827 20.0732C22.7413 21.9843 19.7701 24.405 16.9146 26.8256C14.7151 28.6857 12.4385 30.5204 10.3805 32.5461C5.93004 36.9288 3.07456 42.5856 0.231942 48.0257L3.56333 49.9495C8.5154 40.4707 13.4546 30.979 18.4067 21.5001C19.5386 19.3215 16.22 17.385 15.0753 19.5763V19.6018Z" fill="#073B3A"/>
</svg>
